<?xml version="1.0" encoding="UTF-8" standalone="no"?>
<svg
   xmlns:dc="http://purl.org/dc/elements/1.1/"
   xmlns:cc="http://creativecommons.org/ns#"
   xmlns:rdf="http://www.w3.org/1999/02/22-rdf-syntax-ns#"
   xmlns:svg="http://www.w3.org/2000/svg"
   xmlns="http://www.w3.org/2000/svg"
   xmlns:sodipodi="http://sodipodi.sourceforge.net/DTD/sodipodi-0.dtd"
   xmlns:inkscape="http://www.inkscape.org/namespaces/inkscape"
   fill="#000000"
   height="24"
   viewBox="0 0 24 24"
   width="24"
   id="svg2"
   version="1.1"
   inkscape:version="0.91 r13725"
   sodipodi:docname="ic_enhanced_encryption_black_24px.svg"
   inkscape:export-filename="/home/lukas/Downloads/ic_enhanced_encryption_black_24px.svg.png"
   inkscape:export-xdpi="90"
   inkscape:export-ydpi="90">
  <metadata
     id="metadata14">
    <rdf:RDF>
      <cc:Work
         rdf:about="">
        <dc:format>image/svg+xml</dc:format>
        <dc:type
           rdf:resource="http://purl.org/dc/dcmitype/StillImage" />
      </cc:Work>
    </rdf:RDF>
  </metadata>
  <defs
     id="defs12" />
  <sodipodi:namedview
     pagecolor="#ffffff"
     bordercolor="#666666"
     borderopacity="1"
     objecttolerance="10"
     gridtolerance="10"
     guidetolerance="10"
     inkscape:pageopacity="0"
     inkscape:pageshadow="2"
     inkscape:window-width="956"
     inkscape:window-height="1152"
     id="namedview10"
     showgrid="false"
     inkscape:zoom="11.947158"
     inkscape:cx="0.328095"
     inkscape:cy="12.104806"
     inkscape:window-x="960"
     inkscape:window-y="22"
     inkscape:window-maximized="0"
     inkscape:current-layer="svg2" />
  <path
     d="m 1.1264,0.8912305 23.169531,0 0,22.5169075 -23.169531,0 z"
     id="path4"
     inkscape:connector-curvature="0"
     style="fill:none" />
  <path
     d="m 1.1264,0.8912305 23.169531,0 0,22.5169075 -23.169531,0 z"
     id="path8"
     inkscape:connector-curvature="0"
     style="fill:none" />
  <g
     style="fill:#000000"
     id="g3354"
     transform="matrix(0.57111782,-0.19732185,0.22628921,0.63067737,2.7340852,6.7937028)">
    <path
       id="path3344"
       d="M 0,0 24,0 24,24 0,24 Z"
       inkscape:connector-curvature="0"
       style="fill:none" />
    <path
       id="path3346"
       d="M 20,4 4,4 C 2.9,4 2.01,4.9 2.01,6 L 2,18 c 0,1.1 0.9,2 2,2 l 16,0 c 1.1,0 2,-0.9 2,-2 L 22,6 C 22,4.9 21.1,4 20,4 Z m 0,14 -16,0 0,-10 8,5 8,-5 0,10 z M 12,11 4,6 20,6 12,11 Z"
       inkscape:connector-curvature="0" />
  </g>
  <g
     style="fill:#000000"
     id="g3370"
     transform="matrix(0.40711146,0,0,0.40711146,0.72269022,-1.3086037)">
    <path
       id="path3360"
       d="M 0,0 24,0 24,24 0,24 Z"
       inkscape:connector-curvature="0"
       style="fill:none" />
    <path
       id="path3362"
       d="M 12.65,10 C 11.83,7.67 9.61,6 7,6 3.69,6 1,8.69 1,12 c 0,3.31 2.69,6 6,6 2.61,0 4.83,-1.67 5.65,-4 l 4.35,0 0,4 4,0 0,-4 2,0 0,-4 -10.35,0 z M 7,14 c -1.1,0 -2,-0.9 -2,-2 0,-1.1 0.9,-2 2,-2 1.1,0 2,0.9 2,2 0,1.1 -0.9,2 -2,2 z"
       inkscape:connector-curvature="0" />
  </g>
  <g
     transform="matrix(0,0.40711146,-0.40711146,0,25.810815,0.53283822)"
     id="g3374"
     style="fill:#000000">
    <path
       style="fill:none"
       inkscape:connector-curvature="0"
       d="M 0,0 24,0 24,24 0,24 Z"
       id="path3376" />
    <path
       inkscape:connector-curvature="0"
       d="M 12.65,10 C 11.83,7.67 9.61,6 7,6 3.69,6 1,8.69 1,12 c 0,3.31 2.69,6 6,6 2.61,0 4.83,-1.67 5.65,-4 l 4.35,0 0,4 4,0 0,-4 2,0 0,-4 -10.35,0 z M 7,14 c -1.1,0 -2,-0.9 -2,-2 0,-1.1 0.9,-2 2,-2 1.1,0 2,0.9 2,2 0,1.1 -0.9,2 -2,2 z"
       id="path3378" />
  </g>
  <g
     style="fill:#000000"
     id="g3380"
     transform="matrix(-0.40711146,0,0,-0.40711146,23.718266,25.286156)">
    <path
       id="path3382"
       d="M 0,0 24,0 24,24 0,24 Z"
       inkscape:connector-curvature="0"
       style="fill:none" />
    <path
       id="path3384"
       d="M 12.65,10 C 11.83,7.67 9.61,6 7,6 3.69,6 1,8.69 1,12 c 0,3.31 2.69,6 6,6 2.61,0 4.83,-1.67 5.65,-4 l 4.35,0 0,4 4,0 0,-4 2,0 0,-4 -10.35,0 z M 7,14 c -1.1,0 -2,-0.9 -2,-2 0,-1.1 0.9,-2 2,-2 1.1,0 2,0.9 2,2 0,1.1 -0.9,2 -2,2 z"
       inkscape:connector-curvature="0" />
  </g>
  <g
     transform="matrix(0,-0.40711146,0.40711146,0,-1.3698589,23.444715)"
     id="g3386"
     style="fill:#000000">
    <path
       style="fill:none"
       inkscape:connector-curvature="0"
       d="M 0,0 24,0 24,24 0,24 Z"
       id="path3388" />
    <path
       inkscape:connector-curvature="0"
       d="M 12.65,10 C 11.83,7.67 9.61,6 7,6 3.69,6 1,8.69 1,12 c 0,3.31 2.69,6 6,6 2.61,0 4.83,-1.67 5.65,-4 l 4.35,0 0,4 4,0 0,-4 2,0 0,-4 -10.35,0 z M 7,14 c -1.1,0 -2,-0.9 -2,-2 0,-1.1 0.9,-2 2,-2 1.1,0 2,0.9 2,2 0,1.1 -0.9,2 -2,2 z"
       id="path3390" />
  </g>
</svg>
